<svg xmlns="http://www.w3.org/2000/svg" viewBox="0 0 256 256">
  <g>
    <path d="M128.0187,75.8127a10.86,10.86,0,0,0-8.1088,5.815,11.9923,11.9923,0,0,0-1.1625,6.0738c.2913,1.7125,8.4963,44.6787,8.6575,45.325.065.3225.0325.5812-.065.5487a42.41,42.41,0,0,1-3.3925-3.6825c-2.6812-3.1337-3.4562-3.8437-5.2662-4.7162A9.88,9.88,0,0,0,105.5,129.0852c-1.68,3.1013-1.4537,7.4625.6138,11.7913,2.2287,4.62,10.6287,17.025,16.4437,24.2287,5.1038,6.3638,12.8575,13.7625,15.6363,14.925a3.35,3.35,0,0,0,4.5875-3.1987c0-1.7125-.2913-2.1963-2.4875-3.8125-7.075-5.2988-16.9925-17.5425-25.715-31.7238-2.3588-3.8125-3.1338-5.6212-3.1338-7.1712s.2588-2.1,1.3575-2.6488c2.1-1.0987,2.3913-.8725,11.7913,10.0463,3.3925,3.9087,6.4612,7.3987,6.8812,7.7537a2.9946,2.9946,0,0,0,2.165.6463,2.4787,2.4787,0,0,0,2.3913-1.0663,3.0958,3.0958,0,0,0,.9375-2.2937c0-.6788-2.52-14.4413-5.6213-30.5938-3.2625-16.8962-5.5562-29.7537-5.46-30.2387a4.2765,4.2765,0,0,1,1.2925-1.8738,3.7,3.7,0,0,1,4.91-.1612,4.7113,4.7113,0,0,1,1.1313,1.3887c.0975.2913,1.9387,9.6913,4.07,20.9025,2.1325,11.1775,4.07,20.74,4.2325,21.225,1.325,3.295,6.7837,2.1963,6.7512-1.3562,0-.4525-.8075-4.8775-1.745-9.8213-1.9712-10.1437-1.9712-10.6612.0963-12.05a3.752,3.752,0,0,1,5.2987.9688,100.33,100.33,0,0,1,2.2938,10.2737c1.0012,5.2338,2.0025,9.9175,2.1975,10.435a3.4273,3.4273,0,0,0,6.3962-.1287c.3875-.9363.2913-1.8088-1.0337-8.82-1.68-8.7875-1.68-9.4338.355-10.79a3.6372,3.6372,0,0,1,5.3625,1.2275c.485.905,1.26,4.555,2.585,11.9212.6787,3.715,1.1637,4.7163,2.5525,5.395a3.4216,3.4216,0,0,0,4.2-.905c1.0337-1.195,1.0662-2.1.1937-6.2675-.9687-4.6525-.8725-5.815.4525-7.14,1.8738-1.8737,4.2-1.4537,5.815,1.1313,1.5175,2.3912,4.9425,19.8037,6.3963,32.5.5162,4.62.5162,16.5087,0,19.0287-.355,1.68-.3225,2.0675.1937,3.0688a3.8925,3.8925,0,0,0,1.7125,1.745,2.4275,2.4275,0,0,0,2.3913.1612c1.68-.5812,2.3262-1.615,2.8112-4.4587.5488-3.1338.5163-15.1188-.0325-20.03-1.4562-13.115-5.0412-31.4975-6.7537-34.695a15.3165,15.3165,0,0,0-5.7188-5.6863,8.2132,8.2132,0,0,0-4.3612-.8075c-2.3588,0-2.9725.1288-4.4263.8725-.9362.485-1.7125.7425-1.7125.6138,0-.775-2.8425-3.36-4.7812-4.2963a8.0909,8.0909,0,0,0-4.7488-1.0662,7.9309,7.9309,0,0,0-4.6837,1.0337l-2.0675,1.0338-1.26-1.1625a10.9793,10.9793,0,0,0-10.725-2.3913c-1.0663.3875-2.0675.7113-2.2288.775a45.628,45.628,0,0,1-1.68-7.075,63.3763,63.3763,0,0,0-2.0675-8.625A11.0957,11.0957,0,0,0,128.0187,75.8127Z"/>
    <path d="M72.3151,88.525,59.83,101.01a3.5,3.5,0,0,0,4.9492,4.95L71.29,99.45v57.1L64.779,150.04a3.5,3.5,0,0,0-4.9492,4.95L72.3151,167.475a3.5,3.5,0,0,0,4.9493,0L89.75,154.99a3.5,3.5,0,1,0-4.9492-4.95L78.29,156.55V99.45l6.5108,6.5107a3.5,3.5,0,1,0,4.9492-4.95L77.2644,88.525A3.5,3.5,0,0,0,72.3151,88.525Z"/>
  </g>
</svg>
