<svg xmlns="http://www.w3.org/2000/svg" viewBox="0 0 256 256">
  <g>
    <path id="svg_hand" d="M105.2289,98.6719a10.86,10.86,0,0,0-8.1087,5.815,11.9912,11.9912,0,0,0-1.1625,6.0738c.2912,1.7125,8.4962,44.6787,8.6575,45.325.065.3225.0325.5812-.065.5487a42.3922,42.3922,0,0,1-3.3925-3.6825c-2.6813-3.1337-3.4563-3.8437-5.2663-4.7162A9.88,9.88,0,0,0,82.71,151.9444c-1.68,3.1013-1.4538,7.4625.6137,11.7913,2.2288,4.62,10.6288,17.025,16.4438,24.2287,5.1037,6.3638,12.8575,13.7625,15.6362,14.925a3.35,3.35,0,0,0,4.5875-3.1987c0-1.7125-.2912-2.1963-2.4875-3.8125-7.075-5.2988-16.9925-17.5425-25.715-31.7238-2.3587-3.8125-3.1337-5.6212-3.1337-7.1712s.2587-2.1,1.3575-2.6488c2.1-1.0987,2.3912-.8725,11.7912,10.0463,3.3925,3.9087,6.4613,7.3987,6.8813,7.7537a2.9946,2.9946,0,0,0,2.165.6463,2.4785,2.4785,0,0,0,2.3912-1.0663,3.0954,3.0954,0,0,0,.9375-2.2937c0-.6788-2.52-14.4413-5.6212-30.5938-3.2625-16.8962-5.5563-29.7537-5.46-30.2387a4.2748,4.2748,0,0,1,1.2925-1.8738,3.7,3.7,0,0,1,4.91-.1612,4.7106,4.7106,0,0,1,1.1312,1.3887c.0975.2913,1.9388,9.6913,4.07,20.9025,2.1325,11.1775,4.07,20.74,4.2325,21.225,1.325,3.295,6.7838,2.1963,6.7513-1.3562,0-.4525-.8075-4.8775-1.745-9.8213-1.9713-10.1437-1.9713-10.6612.0962-12.05a3.7521,3.7521,0,0,1,5.2988.9688,100.343,100.343,0,0,1,2.2937,10.2737c1.0013,5.2338,2.0025,9.9175,2.1975,10.435a3.4274,3.4274,0,0,0,6.3963-.1287c.3875-.9363.2912-1.8088-1.0338-8.82-1.68-8.7875-1.68-9.4338.355-10.79a3.6372,3.6372,0,0,1,5.3625,1.2275c.485.905,1.26,4.555,2.585,11.9212.6788,3.715,1.1638,4.7163,2.5525,5.395a3.4216,3.4216,0,0,0,4.2-.905c1.0338-1.195,1.0663-2.1.1938-6.2675-.9688-4.6525-.8725-5.815.4525-7.14,1.8738-1.8737,4.2-1.4537,5.815,1.1313,1.5175,2.3912,4.9425,19.8037,6.3963,32.5.5162,4.62.5162,16.5087,0,19.0287-.355,1.68-.3225,2.0675.1937,3.0688a3.8925,3.8925,0,0,0,1.7125,1.745,2.4275,2.4275,0,0,0,2.3913.1612c1.68-.5812,2.3262-1.615,2.8112-4.4587.5488-3.1338.5163-15.1188-.0325-20.03-1.4562-13.115-5.0412-31.4975-6.7537-34.695a15.3165,15.3165,0,0,0-5.7188-5.6863,8.2132,8.2132,0,0,0-4.3612-.8075c-2.3588,0-2.9725.1288-4.4263.8725-.9362.485-1.7125.7425-1.7125.6138,0-.775-2.8425-3.36-4.7812-4.2963a8.0909,8.0909,0,0,0-4.7488-1.0662,7.9309,7.9309,0,0,0-4.6837,1.0337l-2.0675,1.0338-1.26-1.1625a10.9793,10.9793,0,0,0-10.725-2.3913c-1.0663.3875-2.0676.7113-2.2288.775a45.628,45.628,0,0,1-1.68-7.075,63.3763,63.3763,0,0,0-2.0675-8.625A11.0959,11.0959,0,0,0,105.2289,98.6719Z"/>
    <path id="svg_arrow" d="M167.475,66.37,154.99,53.8846a3.5,3.5,0,0,0-4.95,4.9492l6.5107,6.5107H99.45l6.5107-6.5107a3.5,3.5,0,0,0-4.95-4.9492L88.525,66.37a3.5,3.5,0,0,0,0,4.9493L101.01,83.8045a3.5,3.5,0,1,0,4.95-4.9492L99.45,72.3445h57.1L150.04,78.8553a3.5,3.5,0,1,0,4.95,4.9492L167.475,71.3192A3.5,3.5,0,0,0,167.475,66.37Z"/>
  </g>
</svg>
